<?xml version="1.0" encoding="UTF-8" standalone="no"?>
<svg
   xmlns:dc="http://purl.org/dc/elements/1.1/"
   xmlns:cc="http://creativecommons.org/ns#"
   xmlns:rdf="http://www.w3.org/1999/02/22-rdf-syntax-ns#"
   xmlns:svg="http://www.w3.org/2000/svg"
   xmlns="http://www.w3.org/2000/svg"
   xmlns:sodipodi="http://sodipodi.sourceforge.net/DTD/sodipodi-0.dtd"
   xmlns:inkscape="http://www.inkscape.org/namespaces/inkscape"
   version="1.1"
   id="svg2"
   width="1024"
   height="1024"
   viewBox="0 0 1024 1024"
   sodipodi:docname="icon.svg"
   inkscape:version="1.0.2 (394de47547, 2021-03-26)"
   inkscape:export-filename="/home/dflourusso/projects/pessoal/db1/puzzle/assets/icon.png"
   inkscape:export-xdpi="96"
   inkscape:export-ydpi="96">
  <metadata
     id="metadata8">
    <rdf:RDF>
      <cc:Work
         rdf:about="">
        <dc:format>image/svg+xml</dc:format>
        <dc:type
           rdf:resource="http://purl.org/dc/dcmitype/StillImage" />
        <dc:title></dc:title>
      </cc:Work>
    </rdf:RDF>
  </metadata>
  <defs
     id="defs6" />
  <sodipodi:namedview
     pagecolor="#ffffff"
     bordercolor="#666666"
     borderopacity="1"
     objecttolerance="10"
     gridtolerance="10"
     guidetolerance="10"
     inkscape:pageopacity="0"
     inkscape:pageshadow="2"
     inkscape:window-width="1920"
     inkscape:window-height="1136"
     id="namedview4"
     showgrid="false"
     inkscape:zoom="0.70710678"
     inkscape:cx="720.3162"
     inkscape:cy="559.75373"
     inkscape:window-x="0"
     inkscape:window-y="27"
     inkscape:window-maximized="1"
     inkscape:current-layer="g10" />
  <g
     inkscape:groupmode="layer"
     inkscape:label="Image"
     id="g10">
    <g
       id="g975"
       transform="matrix(6.9582342,0,0,6.9582342,-642.99111,-691.83738)">
      <path
         id="path855"
         style="color:#000000;font-style:normal;font-variant:normal;font-weight:normal;font-stretch:normal;font-size:medium;line-height:normal;font-family:sans-serif;font-variant-ligatures:normal;font-variant-position:normal;font-variant-caps:normal;font-variant-numeric:normal;font-variant-alternates:normal;font-variant-east-asian:normal;font-feature-settings:normal;font-variation-settings:normal;text-indent:0;text-align:start;text-decoration:none;text-decoration-line:none;text-decoration-style:solid;text-decoration-color:#000000;letter-spacing:normal;word-spacing:normal;text-transform:none;writing-mode:lr-tb;direction:ltr;text-orientation:mixed;dominant-baseline:auto;baseline-shift:baseline;text-anchor:start;white-space:normal;shape-padding:0;shape-margin:0;inline-size:0;clip-rule:nonzero;display:inline;overflow:visible;visibility:visible;isolation:auto;mix-blend-mode:normal;color-interpolation:sRGB;color-interpolation-filters:linearRGB;solid-color:#000000;solid-opacity:1;vector-effect:none;fill:#534292;fill-opacity:1;fill-rule:nonzero;stroke:none;stroke-linecap:butt;stroke-linejoin:miter;stroke-miterlimit:4;stroke-dasharray:none;stroke-dashoffset:0;stroke-opacity:1;color-rendering:auto;image-rendering:auto;shape-rendering:auto;text-rendering:auto;enable-background:accumulate;stop-color:#000000"
         d="m 184.63615,116.49048 c -3.93519,-3e-4 -7.87006,1.49682 -10.86523,4.49219 l -0.74414,0.74414 c 1.30181,0.91601 2.44785,2.03099 3.41015,3.29687 l 0.6875,-0.6875 c 2.09529,-2.09529 4.80321,-3.14285 7.51172,-3.14258 2.70852,3e-4 5.41838,1.04748 7.51367,3.14258 l -0.002,0.002 30.09766,30.0957 c 4.19058,4.19057 4.19058,10.83286 0,15.02344 l -42.6836,42.68359 v 6.70703 l 46.03711,-46.03515 c 5.99034,-5.99034 5.98996,-15.74209 0,-21.73243 l -30.09765,-30.0957 c -2.99517,-2.99517 -6.93005,-4.49384 -10.86524,-4.49414 z m 0.42969,10.35352 c -1.59372,0 -3.18702,0.61084 -4.4082,1.83203 l -1.62305,1.62304 c 0.3442,1.27541 0.54297,2.60962 0.54297,3.99219 v 69.34766 l 38.02148,-38.02149 c 2.44238,-2.44237 2.44238,-6.37403 0,-8.8164 l -28.125,-28.125 c -1.22119,-1.22119 -2.81448,-1.83203 -4.4082,-1.83203 z"
         sodipodi:nodetypes="ssccsscccscccccssscscccss" />
      <path
         style="color:#000000;font-style:normal;font-variant:normal;font-weight:normal;font-stretch:normal;font-size:medium;line-height:normal;font-family:sans-serif;font-variant-ligatures:normal;font-variant-position:normal;font-variant-caps:normal;font-variant-numeric:normal;font-variant-alternates:normal;font-variant-east-asian:normal;font-feature-settings:normal;font-variation-settings:normal;text-indent:0;text-align:start;text-decoration:none;text-decoration-line:none;text-decoration-style:solid;text-decoration-color:#000000;letter-spacing:normal;word-spacing:normal;text-transform:none;writing-mode:lr-tb;direction:ltr;text-orientation:mixed;dominant-baseline:auto;baseline-shift:baseline;text-anchor:start;white-space:normal;shape-padding:0;shape-margin:0;inline-size:0;clip-rule:nonzero;display:inline;overflow:visible;visibility:visible;isolation:auto;mix-blend-mode:normal;color-interpolation:sRGB;color-interpolation-filters:linearRGB;solid-color:#000000;solid-opacity:1;vector-effect:none;fill:#534292;fill-opacity:1;fill-rule:nonzero;stroke:none;stroke-linecap:butt;stroke-linejoin:miter;stroke-miterlimit:4;stroke-dasharray:none;stroke-dashoffset:0;stroke-opacity:1;color-rendering:auto;image-rendering:auto;shape-rendering:auto;text-rendering:auto;enable-background:accumulate;stop-color:#000000"
         d="m 117.25381,123.3147 c -8.47162,0 -15.36719,6.89361 -15.36719,15.36523 v 75.48047 c 0,8.47162 6.89557,15.36719 15.36719,15.36719 h 42.5625 c 8.47161,0 15.36718,-6.89557 15.36718,-15.36719 v -75.48047 c 0,-8.47162 -6.89557,-15.36523 -15.36718,-15.36523 z m 0,4.74218 h 42.5625 c 5.92637,0 10.62304,4.69668 10.62304,10.62305 v 75.48047 c 0,5.92637 -4.69667,10.62305 -10.62304,10.62305 h -42.5625 c -5.92637,0 -10.625,-4.69668 -10.625,-10.62305 v -75.48047 c 0,-5.92637 4.69862,-10.62305 10.625,-10.62305 z"
         id="path909" />
      <rect
         style="fill:#534292;fill-opacity:1;stroke:none;stroke-width:3.80197"
         id="rect911"
         width="52.244091"
         height="85.576057"
         x="112.19591"
         y="133.01505"
         ry="6.2347341" />
      <g
         aria-label="?"
         id="text923"
         style="font-style:normal;font-weight:normal;font-size:40px;line-height:1.25;font-family:sans-serif;fill:#000000;fill-opacity:1;stroke:none">
        <path
           d="m 141.42568,183.08781 h -9.40103 v -1.27604 q 0,-2.13542 0.85937,-3.77604 0.85937,-1.66667 3.61979,-4.21875 l 1.66666,-1.51042 q 1.48438,-1.35416 2.16146,-2.55208 0.70313,-1.19791 0.70313,-2.39583 0,-1.82292 -1.25,-2.83854 -1.25,-1.04167 -3.48958,-1.04167 -2.10938,0 -4.55729,0.88542 -2.44792,0.85937 -5.10417,2.57812 v -8.17708 q 3.15104,-1.09374 5.75521,-1.61458 2.60416,-0.52083 5.02604,-0.52083 6.35416,0 9.68749,2.60416 3.33333,2.57813 3.33333,7.55208 0,2.55209 -1.01562,4.58333 -1.01563,2.00521 -3.46354,4.32292 l -1.66667,1.48437 q -1.77083,1.61458 -2.3177,2.60417 -0.54688,0.96354 -0.54688,2.13541 z m -9.40103,3.85416 h 9.40103 v 9.27083 h -9.40103 z"
           style="font-style:normal;font-variant:normal;font-weight:bold;font-stretch:normal;font-size:53.3333px;font-family:sans-serif;-inkscape-font-specification:'sans-serif Bold';fill:#ffffff"
           id="path929" />
      </g>
    </g>
  </g>
</svg>
